<?xml version="1.0" encoding="UTF-8" standalone="no"?>
<svg xmlns="http://www.w3.org/2000/svg" xmlns:xlink="http://www.w3.org/1999/xlink" version="1.1" width="300.00003" height="233.10997" viewBox="703.99998 588.94501 300.00003 233.10997"><g fill="#000000" fill-rule="evenodd" stroke-opacity="0" stroke="#000000" stroke-width="1" stroke-linecap="butt" stroke-linejoin="miter" stroke-miterlimit="10" font-family="none" font-weight="none" font-size="none"><g id="Group-1"><g id="Group-1-1"><path d="M811.84742,589.13052c-5.81172,0.4935 -15.87221,2.07188 -20.32727,3.18875c-1.6563,0.4152 -5.08521,1.42818 -7.61972,2.25105c-6.44637,2.09258 -6.81566,3.04758 -2.43137,6.29241c12.21218,9.03848 30.06968,15.84737 49.0335,18.69581c5.18948,0.77921 14.58255,1.30659 23.34549,1.31073c11.83763,0.00527 20.64648,1.22076 28.95657,3.99543c15.93996,5.32199 29.47302,17.08055 36.90566,32.06664c1.0269,2.07 1.86672,3.88553 1.86672,4.03458c0,0.14945 -0.7826,-0.67908 -1.73874,-1.84074c-4.64214,-5.63856 -14.13309,-11.75669 -22.16462,-14.28819c-4.7867,-1.50873 -8.18135,-1.94088 -15.24545,-1.94201c-3.83019,-0.00075 -9.69347,0.21909 -13.02941,0.48824c-12.36048,0.99717 -23.34248,-1.03745 -31.80953,-5.8934c-2.79462,-1.60284 -5.55123,-3.55013 -3.85127,-2.72084c3.54146,1.72782 16.49897,2.18105 24.78684,0.86693c8.12262,-1.28777 13.5564,-1.70862 19.00637,-1.47222c6.70047,0.29099 13.84664,1.69244 17.10539,3.35475c2.61017,1.33181 0.86391,-0.2285 -2.3591,-2.10726c-3.46355,-2.01918 -8.34585,-4.07073 -12.14705,-5.10365c-6.52392,-1.77336 -9.10134,-1.98266 -28.19316,-2.2887c-18.45452,-0.29588 -21.66623,-0.52325 -29.17338,-2.06397c-8.18661,-1.68039 -16.32882,-4.09068 -23.99747,-7.104c-1.81139,-0.71183 -3.29226,-1.1835 -3.29039,-1.04799c0.00188,0.13551 0.80631,1.27385 1.78805,2.52962c10.03452,12.83553 24.17816,22.70255 39.80417,27.76779c8.62592,2.79614 14.64956,3.90471 23.15049,4.26045c6.17423,0.25862 10.97145,-0.1103 22.79552,-1.75304c9.57377,-1.32993 14.28555,-1.43157 18.33482,-0.396c6.34061,1.62167 9.11301,4.98507 9.67202,11.73372c0.53867,6.50586 -0.28985,11.89973 -2.50064,16.27611c-0.50705,1.00431 -0.86843,1.8735 -0.80255,1.93223c0.06551,0.05873 1.38602,0.74082 2.9339,1.51626c5.14544,2.5763 11.1273,6.89132 16.09091,11.60612c10.43616,9.91331 16.36344,21.73248 18.81363,37.51434c0.52889,3.40784 0.6723,6.64212 0.67419,15.20141l0.00264,10.87283l1.95368,-4.09707c7.53803,-15.80633 10.29162,-28.59971 9.20787,-42.7806c-0.82778,-10.83293 -0.47657,-12.69551 2.86991,-15.21948c2.268,-1.71012 3.59115,-2.00676 10.62476,-2.37942c11.53724,-0.6117 14.23737,-2.59812 18.98078,-13.96332l1.03857,-2.48897l-0.83379,-1.65179c-1.20006,-2.37716 -5.9574,-7.85724 -16.88858,-19.4547c-5.25912,-5.57984 -7.41531,-7.38633 -10.84686,-9.08855c-4.29846,-2.1321 -13.85153,-4.24991 -25.65828,-5.68749c-9.65846,-1.17635 -8.42829,-0.44909 -19.38657,-11.45517c-5.20152,-5.22411 -11.32079,-10.98048 -13.59819,-12.79149c-13.66293,-10.8653 -28.75856,-18.24861 -46.86564,-22.92162c-6.01047,-1.55127 -15.03917,-3.10518 -21.08013,-3.62804c-3.96306,-0.34293 -20.33442,-0.42951 -23.90336,-0.12648M955.644,656.40134c1.03518,0.48936 2.32823,1.37699 2.8733,1.97288c0.9791,1.06944 4.20587,6.19079 4.0056,6.35792c-0.31772,0.26538 -9.69611,-0.54582 -10.64321,-0.92075c-1.55127,-0.61397 -3.73871,-2.81609 -4.52169,-4.55294c-0.56691,-1.2569 -0.88875,-1.49933 -2.50778,-1.8878c-1.02164,-0.24506 -1.76358,-0.53906 -1.64915,-0.65349c0.40428,-0.40428 5.32536,-1.12892 7.92575,-1.16694c2.04477,-0.03012 3.05663,0.16074 4.51718,0.85112M819.56426,681.33951c-8.23932,0.61659 -18.94614,2.81759 -27.29124,5.61033c-17.8895,5.98713 -33.51854,17.97344 -43.4213,33.30057c-4.30374,6.66057 -7.97394,14.66499 -9.69309,21.13847l-0.66554,2.50553l-2.91018,1.55052c-3.82793,2.03951 -6.4923,2.92676 -10.31798,3.43607c-3.55013,0.47243 -8.17496,0.07115 -11.30007,-0.98022c-2.33501,-0.78524 -6.27209,-3.36567 -8.37144,-5.48573l-1.59344,-1.60962v1.90737c0,2.84243 0.98022,7.92876 2.18255,11.32718c1.57274,4.44339 3.92957,8.14596 7.4187,11.65317c2.4788,2.49197 3.69429,3.3875 6.24311,4.60149c4.14677,1.97475 6.93875,2.6561 10.88225,2.6561c8.92706,0 14.87504,-4.22054 17.97306,-12.75348c0.49764,-1.37058 1.48803,-5.96229 2.201,-10.20392c0.90231,-5.36753 1.76094,-9.08628 2.82549,-12.234c2.25257,-6.66207 5.84183,-14.66424 4.46561,-9.95547c-0.91247,3.12174 -1.49142,11.02868 -1.49142,20.36943c0,12.67067 -0.78486,16.60061 -4.36434,21.85068c-3.4131,5.00654 -8.43054,8.58338 -13.57071,9.67427l-2.30639,0.48936l-0.25523,1.93373c-0.56163,4.25931 -3.3269,10.77156 -6.41552,15.10919c-2.70842,3.80346 -5.65926,6.30333 -10.00553,8.4761c-6.99899,3.49856 -10.52388,6.59507 -12.63453,11.09831c-1.09466,2.33576 -1.12176,3.62616 -0.09524,4.55294c0.69903,0.63128 1.38564,0.71447 5.74058,0.69452c10.22801,-0.04706 19.02444,-3.15939 25.8864,-9.15894c4.99223,-4.36472 6.83561,-6.71063 13.8534,-17.62863c4.59623,-7.15068 8.23067,-8.79831 23.85555,-10.81674c8.92895,-1.15338 13.40733,-2.08581 18.48464,-3.84863c7.86552,-2.73063 14.22156,-6.77087 23.56155,-14.97705c8.6948,-7.63929 13.39115,-10.359 21.18101,-12.26675c5.24331,-1.284 13.20255,-1.34537 18.72066,-0.14456c1.53696,0.33465 -1.72368,-1.33106 -4.50813,-2.30301c-6.91955,-2.41518 -13.61475,-3.54711 -22.59752,-3.82002c-7.72136,-0.2349 -13.27371,0.23264 -17.20929,1.44813c-1.33934,0.4137 -2.50101,0.68624 -2.58156,0.60606c-0.25748,-0.25785 5.59226,-3.56405 8.12414,-4.59171c5.08257,-2.06285 7.68032,-2.55408 14.49258,-2.73966c5.87307,-0.16037 6.80174,-0.09147 11.29293,0.83643c2.69148,0.55599 7.01103,1.77336 9.59898,2.70542c5.32386,1.91679 17.91548,7.93931 25.78551,12.33338c10.5506,5.89077 29.59613,17.76264 34.06698,21.23559c0.93167,0.72387 1.94313,1.49744 2.24805,1.71917c0.30491,0.22172 -3.27984,-3.74699 -7.96565,-8.8194c-4.68581,-5.0724 -8.45463,-9.28844 -8.37521,-9.36899c0.07905,-0.08055 2.98623,2.61846 6.45956,5.9973c13.47735,13.11071 21.62708,19.45884 36.17124,28.17585c17.00414,10.19111 33.06983,17.5827 41.47815,19.08429c6.11361,1.09166 12.04578,0.43253 12.04578,-1.33821c0,-0.9008 -1.7696,-3.24182 -4.05981,-5.37092c-3.19703,-2.97155 -7.69725,-5.62727 -18.22904,-10.75538c-19.71368,-9.60012 -31.45041,-17.59928 -39.04604,-26.61215c-6.04398,-7.17138 -9.77817,-14.35707 -14.91419,-28.69946c-8.72906,-24.37616 -21.65193,-38.9892 -44.397,-50.20533c-10.51184,-5.18384 -23.62479,-9.10172 -35.76093,-10.68537c-4.47389,-0.58385 -16.90062,-1.00244 -20.89191,-0.70355M955.1618,755.91724c-2.18292,4.78857 -2.52924,6.32141 -2.52924,11.19882c0,4.34589 0.04818,4.61994 1.27272,7.23275c1.71954,3.66833 2.0252,3.9081 4.37375,3.42929c1.03518,-0.21119 3.6608,-0.40391 5.83467,-0.428c7.55459,-0.08394 12.04616,2.35571 17.09673,9.2858c3.11045,4.26836 5.33139,6.33119 8.91915,8.28524c4.91694,2.67794 11.86359,3.92204 13.3919,2.39825c0.63165,-0.63015 0.63354,-0.78863 0.032,-3.08072c-1.56596,-5.97095 -5.45637,-12.16211 -11.38478,-18.11874c-7.23764,-7.2719 -11.55794,-9.96977 -21.09104,-13.17093c-8.05148,-2.70353 -9.99876,-3.87611 -12.82086,-7.72097c-0.74759,-1.01825 -1.48916,-1.85166 -1.64802,-1.85166c-0.15885,0 -0.81008,1.1436 -1.44701,2.54091M842.52654,811.20023c-19.67303,0.35912 -43.37349,1.65743 -61.54644,3.37094c-12.75348,1.2027 -31.25016,3.72855 -31.9778,4.36698c-0.1965,0.17241 1.75154,0.31356 4.32896,0.31356c2.5778,0 17.64519,0.28835 33.48353,0.64068c35.79518,0.79616 98.23865,0.87446 131.37436,0.16488c13.14684,-0.28119 29.32397,-0.62375 35.94914,-0.7604c10.32851,-0.21306 11.77739,-0.31094 10.16363,-0.68474c-7.3005,-1.69131 -37.54446,-4.72797 -60.9818,-6.12227c-15.50255,-0.92264 -45.75743,-1.56444 -60.79358,-1.28966" id="CompoundPath-1"/></g></g></g></svg>